<?xml version="1.0" encoding="utf-8"?>
<!-- Generator: Adobe Illustrator 25.2.0, SVG Export Plug-In . SVG Version: 6.00 Build 0)  -->
<svg version="1.1" id="_x32_" xmlns="http://www.w3.org/2000/svg" xmlns:xlink="http://www.w3.org/1999/xlink" x="0px" y="0px"
	 viewBox="0 0 800 800" style="enable-background:new 0 0 800 800;" xml:space="preserve">
<style type="text/css">
	.st0{fill:#0E6037;}
</style>
<g>
	<path class="st0" d="M400,347.1c-29.2,0-52.9,23.7-52.9,52.9c0,29.2,23.7,52.9,52.9,52.9c29.2,0,52.9-23.7,52.9-52.9
		C452.9,370.8,429.2,347.1,400,347.1z"/>
	<path class="st0" d="M370.9,306.3c3.2,13.1,15,22.9,29.1,22.9c14.1,0,25.9-9.8,29.1-22.9l58.4-192.8c1.9-7.4,3-15.1,3-23
		C490.5,40.5,450,0,400,0s-90.5,40.5-90.5,90.5c0,8,1,15.7,3,23L370.9,306.3z"/>
	<path class="st0" d="M429.1,493.7c-3.2-13.1-15-22.9-29.1-22.9c-14.1,0-25.9,9.7-29.1,22.9l-58.4,192.8c-1.9,7.4-3,15.1-3,23
		c0,50,40.5,90.5,90.5,90.5s90.5-40.5,90.5-90.5c0-8-1-15.7-3-23L429.1,493.7z"/>
	<path class="st0" d="M135.5,259.3l177.6,95.1c11.6,7,26.8,5.6,36.8-4.4c10-10,11.4-25.2,4.4-36.8l-95.1-177.6
		c-3.8-6.6-8.6-12.8-14.2-18.4c-35.3-35.3-92.6-35.3-127.9,0c-35.3,35.3-35.3,92.6,0,127.9C122.8,250.7,129,255.4,135.5,259.3z"/>
	<path class="st0" d="M664.5,540.7l-177.6-95.1c-11.6-7-26.8-5.5-36.8,4.4c-10,10-11.4,25.2-4.4,36.8l95.1,177.6
		c3.8,6.6,8.5,12.8,14.2,18.4c35.3,35.3,92.6,35.3,127.9,0c35.3-35.3,35.3-92.6,0-127.9C677.2,549.3,671,544.6,664.5,540.7z"/>
	<path class="st0" d="M306.3,429.1c13.1-3.2,22.9-15,22.9-29.1c0-14.1-9.7-25.9-22.9-29.2l-192.8-58.3c-7.4-1.9-15.1-3-23-3
		C40.5,309.5,0,350,0,400s40.5,90.5,90.5,90.5c8,0,15.7-1,23-3L306.3,429.1z"/>
	<path class="st0" d="M709.5,309.5c-8,0-15.7,1-23,3l-192.8,58.4c-13.1,3.2-22.9,15-22.9,29.2c0,14.1,9.8,25.9,22.9,29.1l192.8,58.4
		c7.4,1.9,15.1,3,23,3c50,0,90.5-40.5,90.5-90.5C800,350,759.5,309.5,709.5,309.5z"/>
	<path class="st0" d="M349.9,450.1c-10-10-25.2-11.4-36.8-4.4l-177.6,95.1c-6.6,3.8-12.8,8.6-18.4,14.2
		c-35.3,35.3-35.3,92.6,0,127.9c35.3,35.3,92.6,35.3,127.9,0c5.6-5.6,10.4-11.8,14.2-18.4l95.1-177.6
		C361.4,475.3,359.9,460,349.9,450.1z"/>
	<path class="st0" d="M450.1,349.9c10,10,25.2,11.4,36.8,4.4l177.6-95.1c6.6-3.8,12.8-8.6,18.4-14.2c35.3-35.3,35.3-92.6,0-127.9
		c-35.3-35.3-92.6-35.3-127.9,0c-5.6,5.6-10.3,11.8-14.2,18.4l-95.1,177.6C438.6,324.7,440.1,340,450.1,349.9z"/>
</g>
</svg>
